<svg xmlns="http://www.w3.org/2000/svg" viewBox="0 0 1280 640" width="1280" height="640">
  <defs>
    <radialGradient id="b1" cx="0.2" cy="0.2" r="0.5">
      <stop offset="0" stop-color="#7c3aed" stop-opacity="0.65"/>
      <stop offset="1" stop-color="#7c3aed" stop-opacity="0"/>
    </radialGradient>
    <radialGradient id="b2" cx="0.85" cy="0.85" r="0.55">
      <stop offset="0" stop-color="#ec4899" stop-opacity="0.6"/>
      <stop offset="1" stop-color="#ec4899" stop-opacity="0"/>
    </radialGradient>
    <radialGradient id="b3" cx="0.5" cy="0.5" r="0.45">
      <stop offset="0" stop-color="#06b6d4" stop-opacity="0.4"/>
      <stop offset="1" stop-color="#06b6d4" stop-opacity="0"/>
    </radialGradient>
    <linearGradient id="titleGrad" x1="0" y1="0" x2="1" y2="0.3">
      <stop offset="0" stop-color="#c4b5fd"/>
      <stop offset="0.5" stop-color="#f472b6"/>
      <stop offset="1" stop-color="#22d3ee"/>
    </linearGradient>
    <linearGradient id="brain" x1="0" y1="0" x2="1" y2="1">
      <stop offset="0" stop-color="#7c3aed"/>
      <stop offset="0.5" stop-color="#ec4899"/>
      <stop offset="1" stop-color="#06b6d4"/>
    </linearGradient>
  </defs>

  <rect width="1280" height="640" fill="#050511"/>

  <ellipse cx="200" cy="180" rx="500" ry="450" fill="url(#b1)"/>
  <ellipse cx="1080" cy="520" rx="500" ry="500" fill="url(#b2)"/>
  <ellipse cx="640" cy="320" rx="450" ry="380" fill="url(#b3)"/>

  <g stroke="#8b5cf6" stroke-opacity="0.08" stroke-width="1">
    <line x1="0" y1="64" x2="1280" y2="64"/>
    <line x1="0" y1="128" x2="1280" y2="128"/>
    <line x1="0" y1="192" x2="1280" y2="192"/>
    <line x1="0" y1="256" x2="1280" y2="256"/>
    <line x1="0" y1="320" x2="1280" y2="320"/>
    <line x1="0" y1="384" x2="1280" y2="384"/>
    <line x1="0" y1="448" x2="1280" y2="448"/>
    <line x1="0" y1="512" x2="1280" y2="512"/>
    <line x1="0" y1="576" x2="1280" y2="576"/>
    <line x1="64" y1="0" x2="64" y2="640"/>
    <line x1="128" y1="0" x2="128" y2="640"/>
    <line x1="192" y1="0" x2="192" y2="640"/>
    <line x1="256" y1="0" x2="256" y2="640"/>
    <line x1="320" y1="0" x2="320" y2="640"/>
    <line x1="384" y1="0" x2="384" y2="640"/>
    <line x1="448" y1="0" x2="448" y2="640"/>
    <line x1="512" y1="0" x2="512" y2="640"/>
    <line x1="576" y1="0" x2="576" y2="640"/>
    <line x1="640" y1="0" x2="640" y2="640"/>
    <line x1="704" y1="0" x2="704" y2="640"/>
    <line x1="768" y1="0" x2="768" y2="640"/>
    <line x1="832" y1="0" x2="832" y2="640"/>
    <line x1="896" y1="0" x2="896" y2="640"/>
    <line x1="960" y1="0" x2="960" y2="640"/>
    <line x1="1024" y1="0" x2="1024" y2="640"/>
    <line x1="1088" y1="0" x2="1088" y2="640"/>
    <line x1="1152" y1="0" x2="1152" y2="640"/>
    <line x1="1216" y1="0" x2="1216" y2="640"/>
  </g>

  <g transform="translate(560 100)">
    <rect x="0" y="0" width="160" height="160" rx="36" fill="url(#brain)" opacity="0.95"/>
    <g transform="translate(80 80)" stroke="#fff" stroke-width="2.5" stroke-linecap="round" fill="none">
      <circle cx="-30" cy="-30" r="5" fill="#fff"/>
      <circle cx="30" cy="-30" r="5" fill="#fff"/>
      <circle cx="-45" cy="0" r="4" fill="#fff"/>
      <circle cx="45" cy="0" r="4" fill="#fff"/>
      <circle cx="-30" cy="30" r="4" fill="#fff"/>
      <circle cx="30" cy="30" r="4" fill="#fff"/>
      <circle cx="0" cy="0" r="6" fill="#fff"/>
      <line x1="-30" y1="-30" x2="0" y2="0"/>
      <line x1="30" y1="-30" x2="0" y2="0"/>
      <line x1="-45" y1="0" x2="0" y2="0"/>
      <line x1="45" y1="0" x2="0" y2="0"/>
      <line x1="-30" y1="30" x2="0" y2="0"/>
      <line x1="30" y1="30" x2="0" y2="0"/>
    </g>
  </g>

  <text x="640" y="330" font-family="system-ui, -apple-system, 'Segoe UI', sans-serif" font-size="100" font-weight="800" fill="url(#titleGrad)" text-anchor="middle" letter-spacing="-2">
    AgentMemory
  </text>

  <text x="640" y="395" font-family="system-ui, -apple-system, 'Segoe UI', sans-serif" font-size="32" font-weight="500" fill="#cbd5e1" text-anchor="middle" opacity="0.9">
    Persistent memory for AI agents
  </text>

  <g transform="translate(385 445)" font-family="system-ui, -apple-system, 'Segoe UI', sans-serif" font-size="20" font-weight="600">
    <g transform="translate(0 0)">
      <rect width="100" height="44" rx="22" fill="#8b5cf6" fill-opacity="0.2" stroke="#8b5cf6" stroke-opacity="0.6" stroke-width="1.5"/>
      <text x="50" y="29" fill="#c4b5fd" text-anchor="middle">Claude</text>
    </g>
    <g transform="translate(110 0)">
      <rect width="95" height="44" rx="22" fill="#8b5cf6" fill-opacity="0.2" stroke="#8b5cf6" stroke-opacity="0.6" stroke-width="1.5"/>
      <text x="47.5" y="29" fill="#c4b5fd" text-anchor="middle">Cursor</text>
    </g>
    <g transform="translate(215 0)">
      <rect width="85" height="44" rx="22" fill="#8b5cf6" fill-opacity="0.2" stroke="#8b5cf6" stroke-opacity="0.6" stroke-width="1.5"/>
      <text x="42.5" y="29" fill="#c4b5fd" text-anchor="middle">Cline</text>
    </g>
    <g transform="translate(310 0)">
      <rect width="115" height="44" rx="22" fill="#8b5cf6" fill-opacity="0.2" stroke="#8b5cf6" stroke-opacity="0.6" stroke-width="1.5"/>
      <text x="57.5" y="29" fill="#c4b5fd" text-anchor="middle">Continue</text>
    </g>
    <g transform="translate(435 0)">
      <rect width="75" height="44" rx="22" fill="#8b5cf6" fill-opacity="0.2" stroke="#8b5cf6" stroke-opacity="0.6" stroke-width="1.5"/>
      <text x="37.5" y="29" fill="#c4b5fd" text-anchor="middle">MCP</text>
    </g>
  </g>

  <g transform="translate(640 540)">
    <text font-family="system-ui, -apple-system, 'Segoe UI', sans-serif" font-size="20" font-weight="600" fill="#a78bfa" text-anchor="middle" letter-spacing="2">
      <tspan fill="#c4b5fd">MIT</tspan>
      <tspan dx="14" fill="#64748b">·</tspan>
      <tspan dx="14" fill="#c4b5fd">Free Forever</tspan>
      <tspan dx="14" fill="#64748b">·</tspan>
      <tspan dx="14" fill="#c4b5fd">Self-host in 5 min</tspan>
    </text>
  </g>

  <text x="640" y="600" font-family="ui-monospace, 'Cascadia Code', Consolas, monospace" font-size="18" fill="#64748b" text-anchor="middle" opacity="0.7">
    github.com/Obidel/Agentmemory
  </text>
</svg>
